<svg aria-hidden="true" style="position: absolute; width: 0; height: 0; overflow: hidden;" version="1.1" xmlns="http://www.w3.org/2000/svg" xmlns:xlink="http://www.w3.org/1999/xlink">
<defs>
<symbol id="icon-sheeping" viewBox="0 0 38 32">
<path fill="#289bc3" style="fill: var(--color1, #289bc3)" d="M27.199 26.582v-16.073h-24.727v16.073c0 0.683 0.554 1.236 1.236 1.236h22.254c0.683 0 1.236-0.553 1.236-1.236z"></path>
<path fill="#32283c" style="fill: var(--color2, #32283c)" d="M9.892 24.109h-2.473c-2.048 0-3.709 1.661-3.709 3.709s1.661 3.709 3.709 3.709h2.473c2.049 0 3.709-1.661 3.709-3.709s-1.661-3.709-3.709-3.709z"></path>
<path fill="#32283c" style="fill: var(--color2, #32283c)" d="M32.145 24.109h-2.473c-2.049 0-3.709 1.661-3.709 3.709s1.661 3.709 3.709 3.709h2.473c2.048 0 3.709-1.661 3.709-3.709s-1.661-3.709-3.709-3.709z"></path>
<path fill="#555a6e" style="fill: var(--color3, #555a6e)" d="M29.672 31.527c2.048 0 3.709-1.661 3.709-3.709s-1.661-3.709-3.709-3.709-3.709 1.661-3.709 3.709c0 2.049 1.661 3.709 3.709 3.709z"></path>
<path fill="#e6e6eb" style="fill: var(--color4, #e6e6eb)" d="M29.671 29.054c0.683 0 1.236-0.554 1.236-1.236s-0.554-1.236-1.236-1.236c-0.683 0-1.236 0.554-1.236 1.236s0.554 1.236 1.236 1.236z"></path>
<path fill="#32283c" style="fill: var(--color2, #32283c)" d="M22.255 24.109h-2.473c-2.048 0-3.709 1.661-3.709 3.709s1.661 3.709 3.709 3.709h2.473c2.049 0 3.709-1.661 3.709-3.709s-1.661-3.709-3.709-3.709z"></path>
<path fill="#a5c3dc" style="fill: var(--color5, #a5c3dc)" d="M34.62 11.745h-18.545c-0.683 0-1.236 0.553-1.236 1.236v1.236h19.782c0.683 0 1.236-0.553 1.236-1.236s-0.554-1.236-1.236-1.236z"></path>
<path fill="#d7e6f0" style="fill: var(--color6, #d7e6f0)" d="M22.256 11.745h-6.182c-0.683 0-1.236 0.553-1.236 1.236v1.236h7.418c0.683 0 1.236-0.553 1.236-1.236s-0.554-1.236-1.236-1.236z"></path>
<path fill="#463c4b" style="fill: var(--color7, #463c4b)" d="M14.838 14.218h19.782v6.182h-19.782v-6.182z"></path>
<path fill="#555a6e" style="fill: var(--color3, #555a6e)" d="M14.838 14.218h7.418v6.182h-7.418v-6.182z"></path>
<path fill="#a5c3dc" style="fill: var(--color5, #a5c3dc)" d="M35.856 27.818h-19.782c-0.683 0-1.236-0.554-1.236-1.236v-6.182h19.782c1.366 0 2.473 1.107 2.473 2.473v3.709c0 0.683-0.554 1.236-1.236 1.236z"></path>
<path fill="#d7e6f0" style="fill: var(--color6, #d7e6f0)" d="M23.493 27.818h-7.418c-0.683 0-1.236-0.554-1.236-1.236v-6.182h7.418c1.366 0 2.473 1.107 2.473 2.473v3.709c0 0.683-0.554 1.236-1.236 1.236z"></path>
<path fill="#555a6e" style="fill: var(--color3, #555a6e)" d="M27.714 22.873h6.388c0.967 0 1.752 0.784 1.752 1.752s-0.784 1.752-1.752 1.752h-6.388c-0.967 0-1.752-0.784-1.752-1.752s0.784-1.752 1.752-1.752z"></path>
<path fill="#00d2d2" style="fill: var(--color8, #00d2d2)" d="M27.717 25.551c0.512 0 0.927-0.415 0.927-0.927s-0.415-0.927-0.927-0.927c-0.512 0-0.927 0.415-0.927 0.927s0.415 0.927 0.927 0.927z"></path>
<path fill="#00d2d2" style="fill: var(--color8, #00d2d2)" d="M34.101 25.551c0.512 0 0.927-0.415 0.927-0.927s-0.415-0.927-0.927-0.927c-0.512 0-0.927 0.415-0.927 0.927s0.415 0.927 0.927 0.927z"></path>
<path fill="#a5c3dc" style="fill: var(--color5, #a5c3dc)" d="M11.745 0h-3.709c-0.341 0-0.618 0.277-0.618 0.618s0.277 0.618 0.618 0.618c2.386 0 4.327 1.941 4.327 4.327 0 0.341 0.277 0.618 0.618 0.618h3.709c0.341 0 0.618-0.277 0.618-0.618 0-3.068-2.496-5.564-5.564-5.564z"></path>
<path fill="#a5c3dc" style="fill: var(--color5, #a5c3dc)" d="M21.636 0h-3.709c-3.068 0-5.564 2.496-5.564 5.564 0 0.341 0.277 0.618 0.618 0.618h3.709c0.341 0 0.618-0.277 0.618-0.618 0-2.386 1.941-4.327 4.327-4.327 0.341 0 0.618-0.277 0.618-0.618s-0.277-0.618-0.618-0.618z"></path>
<path fill="#a5c3dc" style="fill: var(--color5, #a5c3dc)" d="M24.109 0h-3.709c-0.341 0-0.618 0.277-0.618 0.618s0.277 0.618 0.618 0.618c1.023 0 1.855 0.832 1.855 1.855s-0.832 1.855-1.855 1.855c-0.341 0-0.618 0.277-0.618 0.618s0.277 0.618 0.618 0.618h3.709c1.704 0 3.091-1.387 3.091-3.091s-1.387-3.091-3.091-3.091z"></path>
<path fill="#a5c3dc" style="fill: var(--color5, #a5c3dc)" d="M9.272 4.945c-1.023 0-1.855-0.832-1.855-1.855s0.832-1.855 1.855-1.855c0.341 0 0.618-0.277 0.618-0.618s-0.277-0.618-0.618-0.618h-3.709c-1.704 0-3.091 1.387-3.091 3.091s1.387 3.091 3.091 3.091h3.709c0.341 0 0.618-0.277 0.618-0.618s-0.277-0.618-0.618-0.618z"></path>
<path fill="#289bc3" style="fill: var(--color1, #289bc3)" d="M28.436 6.182h-27.2c-0.683 0-1.236 0.553-1.236 1.236v1.855c0 0.683 0.553 1.236 1.236 1.236h27.2c0.683 0 1.236-0.554 1.236-1.236v-1.855c0-0.683-0.554-1.236-1.236-1.236z"></path>
<path fill="#00d2d2" style="fill: var(--color8, #00d2d2)" d="M13.599 27.818h-9.891c-0.683 0-1.236-0.554-1.236-1.236v-12.364h12.364v12.364c0 0.683-0.553 1.236-1.236 1.236z"></path>
<path fill="#00d2d2" style="fill: var(--color8, #00d2d2)" d="M14.836 6.182h-13.6c-0.683 0-1.236 0.553-1.236 1.236v1.855c0 0.683 0.553 1.236 1.236 1.236h13.6c0.683 0 1.236-0.554 1.236-1.236v-1.855c0-0.683-0.554-1.236-1.236-1.236z"></path>
<path fill="#d7e6f0" style="fill: var(--color6, #d7e6f0)" d="M8.653 9.273c0 0.683 0.554 1.236 1.236 1.236h-3.709c-0.683 0-1.236-0.554-1.236-1.236v-1.855c0-0.683 0.553-1.236 1.236-1.236h3.709c-0.683 0-1.236 0.553-1.236 1.236v1.855z"></path>
<path fill="#a5c3dc" style="fill: var(--color5, #a5c3dc)" d="M21.020 9.273c0 0.683-0.553 1.236-1.236 1.236h3.709c0.683 0 1.236-0.554 1.236-1.236v-1.855c0-0.683-0.554-1.236-1.236-1.236h-3.709c0.683 0 1.236 0.553 1.236 1.236v1.855z"></path>
<path fill="#d7e6f0" style="fill: var(--color6, #d7e6f0)" d="M20.402 6.182h-8.036v-0.618c0-3.068 2.496-5.564 5.564-5.564h2.473c1.704 0 3.091 1.387 3.091 3.091s-1.387 3.091-3.091 3.091zM13.646 4.945h6.756c1.023 0 1.855-0.832 1.855-1.855s-0.832-1.855-1.855-1.855h-2.473c-2.176 0-3.982 1.615-4.283 3.709z"></path>
<path fill="#d7e6f0" style="fill: var(--color6, #d7e6f0)" d="M13.599 6.182h-8.036c-1.704 0-3.091-1.387-3.091-3.091s1.387-3.091 3.091-3.091h2.473c3.068 0 5.564 2.496 5.564 5.564v0.618zM5.563 1.236c-1.023 0-1.855 0.832-1.855 1.855s0.832 1.855 1.855 1.855h6.756c-0.301-2.094-2.107-3.709-4.283-3.709h-2.473z"></path>
<path fill="#555a6e" style="fill: var(--color3, #555a6e)" d="M19.783 31.527c2.049 0 3.709-1.661 3.709-3.709s-1.661-3.709-3.709-3.709c-2.048 0-3.709 1.661-3.709 3.709s1.661 3.709 3.709 3.709z"></path>
<path fill="#e6e6eb" style="fill: var(--color4, #e6e6eb)" d="M19.782 29.054c0.683 0 1.236-0.554 1.236-1.236s-0.554-1.236-1.236-1.236c-0.683 0-1.236 0.554-1.236 1.236s0.554 1.236 1.236 1.236z"></path>
<path fill="#555a6e" style="fill: var(--color3, #555a6e)" d="M7.419 31.527c2.048 0 3.709-1.661 3.709-3.709s-1.661-3.709-3.709-3.709c-2.048 0-3.709 1.661-3.709 3.709s1.661 3.709 3.709 3.709z"></path>
<path fill="#e6e6eb" style="fill: var(--color4, #e6e6eb)" d="M7.416 29.054c0.683 0 1.236-0.554 1.236-1.236s-0.554-1.236-1.236-1.236c-0.683 0-1.236 0.554-1.236 1.236s0.554 1.236 1.236 1.236z"></path>
</symbol>
<symbol id="icon-visa" viewBox="0 0 32 32">
<path fill="#2394bc" style="fill: var(--color9, #2394bc)" d="M13.056 11.026l-1.553 9.664h2.482l1.552-9.664h-2.481zM20.544 14.963c-0.868-0.428-1.399-0.717-1.399-1.156 0.011-0.398 0.45-0.806 1.43-0.806 0.806-0.020 1.399 0.169 1.849 0.358l0.225 0.101 0.337-2.022c-0.49-0.19-1.268-0.398-2.228-0.398-2.451 0-4.178 1.275-4.188 3.097-0.020 1.345 1.236 2.092 2.176 2.539 0.96 0.459 1.287 0.757 1.287 1.165-0.011 0.627-0.776 0.916-1.491 0.916-0.99 0-1.522-0.149-2.33-0.498l-0.327-0.149-0.347 2.101c0.583 0.259 1.655 0.487 2.769 0.499 2.605 0 4.3-1.255 4.322-3.198 0.009-1.066-0.654-1.882-2.085-2.549zM29.35 11.056h-1.921c-0.592 0-1.041 0.17-1.298 0.778l-3.687 8.857h2.605l0.717-1.918h2.915l0.372 1.925h2.298l-2.002-9.642zM26.49 16.838c0.050 0.005 1-3.13 1-3.13l0.756 3.13c0 0-1.266 0-1.756 0zM9.429 11.026l-2.432 6.566-0.265-1.295c-0.45-1.494-1.86-3.118-3.433-3.924l2.227 8.308h2.626l3.903-9.654-2.626-0.001z"></path>
<path fill="#efc75e" style="fill: var(--color10, #efc75e)" d="M5.914 12.273c-0.19-0.737-0.794-1.234-1.615-1.245h-3.852l-0.040 0.179c3.005 0.741 5.527 3.020 6.345 5.164l-0.838-4.098z"></path>
</symbol>
<symbol id="icon-mastercard" viewBox="0 0 32 32">
<path fill="#ffb600" style="fill: var(--color11, #ffb600)" d="M31.655 16.317c0 5.108-4.126 9.284-9.283 9.284-5.108 0-9.284-4.175-9.284-9.284s4.126-9.284 9.234-9.284c5.207 0 9.333 4.175 9.333 9.284z"></path>
<path fill="#f7981d" style="fill: var(--color12, #f7981d)" d="M22.372 7.033c5.108 0 9.283 4.175 9.283 9.284s-4.126 9.284-9.283 9.284c-5.108 0-9.284-4.175-9.284-9.284z"></path>
<path fill="#ff8500" style="fill: var(--color13, #ff8500)" d="M22.372 7.033c5.108 0 9.284 4.175 9.284 9.284s-4.126 9.284-9.284 9.284z"></path>
<path fill="#ff5050" style="fill: var(--color14, #ff5050)" d="M9.896 7.033c-5.059 0.049-9.185 4.175-9.185 9.284s4.126 9.284 9.284 9.284c2.407 0 4.568-0.933 6.238-2.407 0.344-0.295 0.639-0.639 0.933-0.982h-1.916c-0.246-0.295-0.491-0.639-0.688-0.933h3.291c0.196-0.295 0.393-0.639 0.54-0.982h-4.372c-0.147-0.295-0.295-0.639-0.393-0.982h5.108c0.295-0.933 0.491-1.916 0.491-2.947 0-0.688-0.098-1.326-0.196-1.965h-5.698c0.049-0.344 0.147-0.639 0.246-0.982h5.108c-0.098-0.344-0.246-0.688-0.393-0.982h-4.322c0.147-0.344 0.344-0.639 0.54-0.982h3.291c-0.196-0.344-0.442-0.688-0.737-0.982h-1.817c0.295-0.344 0.589-0.639 0.933-0.933-1.621-1.523-3.831-2.407-6.238-2.407 0-0.098 0-0.098-0.049-0.098z"></path>
<path fill="#e52836" style="fill: var(--color15, #e52836)" d="M0.711 16.317c0 5.108 4.126 9.284 9.284 9.284 2.407 0 4.568-0.933 6.238-2.407 0.344-0.295 0.639-0.639 0.933-0.982h-1.916c-0.246-0.295-0.491-0.639-0.688-0.933h3.291c0.196-0.295 0.393-0.639 0.54-0.982h-4.372c-0.147-0.295-0.295-0.639-0.393-0.982h5.108c0.295-0.933 0.491-1.916 0.491-2.947 0-0.688-0.098-1.326-0.196-1.965h-5.698c0.049-0.344 0.147-0.639 0.246-0.982h5.108c-0.098-0.344-0.246-0.688-0.393-0.982h-4.322c0.147-0.344 0.344-0.639 0.54-0.982h3.291c-0.196-0.344-0.442-0.688-0.737-0.982h-1.817c0.295-0.344 0.589-0.639 0.933-0.933-1.621-1.523-3.831-2.407-6.238-2.407h-0.049z"></path>
<path fill="#cb2026" style="fill: var(--color16, #cb2026)" d="M9.995 25.6c2.407 0 4.568-0.933 6.238-2.407 0.344-0.295 0.639-0.639 0.933-0.982h-1.916c-0.246-0.295-0.491-0.639-0.688-0.933h3.291c0.196-0.295 0.393-0.639 0.54-0.982h-4.372c-0.147-0.295-0.295-0.639-0.393-0.982h5.108c0.295-0.933 0.491-1.916 0.491-2.947 0-0.688-0.098-1.326-0.196-1.965h-5.698c0.049-0.344 0.147-0.639 0.246-0.982h5.108c-0.098-0.344-0.246-0.688-0.393-0.982h-4.322c0.147-0.344 0.344-0.639 0.54-0.982h3.291c-0.196-0.344-0.442-0.688-0.737-0.982h-1.817c0.295-0.344 0.589-0.639 0.933-0.933-1.621-1.523-3.831-2.407-6.238-2.407h-0.049z"></path>
<path fill="#fff" style="fill: var(--color17, #fff)" d="M13.284 18.673l0.147-0.835c-0.049 0-0.147 0.049-0.246 0.049-0.344 0-0.393-0.196-0.344-0.295l0.295-1.719h0.54l0.147-0.933h-0.491l0.098-0.589h-0.982c0 0-0.589 3.242-0.589 3.635 0 0.589 0.344 0.835 0.786 0.835 0.295 0 0.54-0.098 0.639-0.147z"></path>
<path fill="#fff" style="fill: var(--color17, #fff)" d="M13.631 17.101c0 1.375 0.933 1.719 1.719 1.719 0.737 0 1.031-0.147 1.031-0.147l0.196-0.933c0 0-0.54 0.246-1.031 0.246-1.081 0-0.884-0.786-0.884-0.786h2.014c0 0 0.147-0.639 0.147-0.884 0-0.639-0.344-1.425-1.424-1.425-1.031-0.098-1.768 0.982-1.768 2.21zM15.35 15.677c0.54 0 0.442 0.639 0.442 0.688h-1.081c0-0.049 0.098-0.688 0.639-0.688z"></path>
<path fill="#fff" style="fill: var(--color17, #fff)" d="M21.593 18.673l0.196-1.081c0 0-0.491 0.246-0.835 0.246-0.688 0-0.982-0.54-0.982-1.13 0-1.179 0.589-1.817 1.277-1.817 0.491 0 0.884 0.295 0.884 0.295l0.147-1.031c0 0-0.589-0.246-1.13-0.246-1.13 0-2.259 0.982-2.259 2.849 0 1.228 0.589 2.063 1.768 2.063 0.393 0 0.933-0.147 0.933-0.147z"></path>
<path fill="#fff" style="fill: var(--color17, #fff)" d="M7.883 14.793c-0.688 0-1.179 0.196-1.179 0.196l-0.147 0.835c0 0 0.442-0.196 1.081-0.196 0.344 0 0.639 0.049 0.639 0.344 0 0.196-0.049 0.246-0.049 0.246s-0.295 0-0.442 0c-0.835 0-1.768 0.344-1.768 1.474 0 0.884 0.589 1.081 0.933 1.081 0.688 0 0.982-0.442 1.032-0.442l-0.049 0.393h0.884l0.393-2.702c0-1.179-0.982-1.228-1.326-1.228zM8.080 17.003c0 0.147-0.098 0.933-0.688 0.933-0.295 0-0.393-0.246-0.393-0.393 0-0.246 0.147-0.589 0.884-0.589 0.147 0.049 0.196 0.049 0.196 0.049z"></path>
<path fill="#fff" style="fill: var(--color17, #fff)" d="M10.143 18.772c0.246 0 1.474 0.049 1.474-1.277 0-1.228-1.179-0.982-1.179-1.474 0-0.246 0.196-0.344 0.54-0.344 0.147 0 0.688 0.049 0.688 0.049l0.147-0.884c0 0-0.344-0.098-0.933-0.098-0.737 0-1.474 0.295-1.474 1.277 0 1.13 1.228 1.032 1.228 1.474 0 0.295-0.344 0.344-0.589 0.344-0.442 0-0.884-0.147-0.884-0.147l-0.147 0.884c0.049 0.098 0.295 0.196 1.13 0.196z"></path>
<path fill="#fff" style="fill: var(--color17, #fff)" d="M29.745 14.007l-0.196 1.326c0 0-0.393-0.491-0.933-0.491-0.884 0-1.67 1.081-1.67 2.358 0 0.786 0.393 1.621 1.228 1.621 0.589 0 0.933-0.393 0.933-0.393l-0.049 0.344h0.982l0.737-4.715-1.032-0.049zM29.303 16.61c0 0.54-0.246 1.228-0.786 1.228-0.344 0-0.54-0.295-0.54-0.786 0-0.786 0.344-1.277 0.786-1.277 0.344 0 0.54 0.246 0.54 0.835z"></path>
<path fill="#fff" style="fill: var(--color17, #fff)" d="M2.532 18.723l0.589-3.537 0.098 3.537h0.688l1.277-3.537-0.54 3.537h1.032l0.786-4.715h-1.621l-0.982 2.898-0.049-2.898h-1.424l-0.786 4.715h0.933z"></path>
<path fill="#fff" style="fill: var(--color17, #fff)" d="M17.759 18.722c0.295-1.621 0.344-2.947 1.032-2.702 0.098-0.639 0.246-0.884 0.344-1.13 0 0-0.049 0-0.196 0-0.442 0-0.786 0.589-0.786 0.589l0.098-0.54h-0.933l-0.639 3.831h1.081v-0.049z"></path>
<path fill="#fff" style="fill: var(--color17, #fff)" d="M23.852 14.793c-0.688 0-1.179 0.196-1.179 0.196l-0.147 0.835c0 0 0.442-0.196 1.081-0.196 0.344 0 0.639 0.049 0.639 0.344 0 0.196-0.049 0.246-0.049 0.246s-0.295 0-0.442 0c-0.835 0-1.768 0.344-1.768 1.474 0 0.884 0.589 1.081 0.933 1.081 0.688 0 0.982-0.442 1.032-0.442l-0.049 0.393h0.884l0.393-2.702c0.049-1.179-0.982-1.228-1.326-1.228zM24.097 17.003c0 0.147-0.098 0.933-0.688 0.933-0.295 0-0.393-0.246-0.393-0.393 0-0.246 0.147-0.589 0.884-0.589 0.147 0.049 0.147 0.049 0.196 0.049z"></path>
<path fill="#fff" style="fill: var(--color17, #fff)" d="M26.009 18.722c0.295-1.621 0.344-2.947 1.032-2.702 0.098-0.639 0.246-0.884 0.344-1.13 0 0-0.049 0-0.196 0-0.442 0-0.786 0.589-0.786 0.589l0.098-0.54h-0.933l-0.639 3.831h1.081v-0.049z"></path>
<path fill="#dce5e5" style="fill: var(--color18, #dce5e5)" d="M11.763 17.986c0 0.589 0.344 0.835 0.786 0.835 0.344 0 0.639-0.098 0.737-0.147l0.147-0.835c-0.049 0-0.147 0.049-0.246 0.049-0.344 0-0.393-0.196-0.344-0.295l0.295-1.719h0.54l0.147-0.933h-0.491l0.098-0.589z"></path>
<path fill="#dce5e5" style="fill: var(--color18, #dce5e5)" d="M14.12 17.101c0 1.375 0.442 1.719 1.228 1.719 0.737 0 1.031-0.147 1.031-0.147l0.196-0.933c0 0-0.54 0.246-1.031 0.246-1.081 0-0.884-0.786-0.884-0.786h2.014c0 0 0.147-0.639 0.147-0.884 0-0.639-0.344-1.425-1.424-1.425-1.031-0.098-1.277 0.982-1.277 2.21zM15.348 15.677c0.54 0 0.639 0.639 0.639 0.688h-1.277c0-0.049 0.098-0.688 0.639-0.688z"></path>
<path fill="#dce5e5" style="fill: var(--color18, #dce5e5)" d="M21.592 18.673l0.196-1.081c0 0-0.491 0.246-0.835 0.246-0.688 0-0.982-0.54-0.982-1.13 0-1.179 0.589-1.817 1.277-1.817 0.491 0 0.884 0.295 0.884 0.295l0.147-1.031c0 0-0.589-0.246-1.13-0.246-1.13 0-1.768 0.982-1.768 2.849 0 1.228 0.098 2.063 1.277 2.063 0.393 0 0.933-0.147 0.933-0.147z"></path>
<path fill="#dce5e5" style="fill: var(--color18, #dce5e5)" d="M6.557 15.873c0 0 0.442-0.196 1.081-0.196 0.344 0 0.639 0.049 0.639 0.344 0 0.196-0.049 0.246-0.049 0.246s-0.295 0-0.442 0c-0.835 0-1.768 0.344-1.768 1.474 0 0.884 0.589 1.081 0.933 1.081 0.688 0 0.982-0.442 1.032-0.442l-0.049 0.393h0.884l0.393-2.702c0-1.13-0.982-1.179-1.375-1.179l-1.277 0.982zM8.571 17.003c0 0.147-0.589 0.933-1.179 0.933-0.295 0-0.393-0.246-0.393-0.393 0-0.246 0.147-0.589 0.884-0.589 0.147 0.049 0.688 0.049 0.688 0.049z"></path>
<path fill="#dce5e5" style="fill: var(--color18, #dce5e5)" d="M9.063 18.673c0 0 0.295 0.098 1.13 0.098 0.246 0 1.474 0.049 1.474-1.277 0-1.228-1.179-0.982-1.179-1.474 0-0.246 0.196-0.344 0.54-0.344 0.147 0 0.688 0.049 0.688 0.049l0.147-0.884c0 0-0.344-0.098-0.933-0.098-0.737 0-0.982 0.295-0.982 1.277 0 1.13 0.737 1.032 0.737 1.474 0 0.295-0.344 0.344-0.589 0.344z"></path>
<path fill="#dce5e5" style="fill: var(--color18, #dce5e5)" d="M29.547 15.333c0 0-0.393-0.491-0.933-0.491-0.884 0-1.179 1.081-1.179 2.358 0 0.786-0.098 1.621 0.737 1.621 0.589 0 0.933-0.393 0.933-0.393l-0.049 0.344h0.982l0.737-4.715-1.228 1.277zM29.497 16.61c0 0.54-0.442 1.228-0.982 1.228-0.344 0-0.54-0.295-0.54-0.786 0-0.786 0.344-1.277 0.786-1.277 0.344 0 0.737 0.246 0.737 0.835z"></path>
<path fill="#dce5e5" style="fill: var(--color18, #dce5e5)" d="M2.532 18.723l0.589-3.537 0.098 3.537h0.688l1.277-3.537-0.54 3.537h1.032l0.786-4.715h-1.228l-1.375 2.898-0.049-2.898h-0.54l-1.67 4.715h0.933z"></path>
<path fill="#dce5e5" style="fill: var(--color18, #dce5e5)" d="M16.727 18.722h1.032c0.295-1.621 0.344-2.947 1.032-2.702 0.098-0.639 0.246-0.884 0.344-1.13 0 0-0.049 0-0.196 0-0.442 0-0.786 0.589-0.786 0.589l0.098-0.54z"></path>
<path fill="#dce5e5" style="fill: var(--color18, #dce5e5)" d="M22.526 15.873c0 0 0.442-0.196 1.081-0.196 0.344 0 0.639 0.049 0.639 0.344 0 0.196-0.049 0.246-0.049 0.246s-0.295 0-0.442 0c-0.835 0-1.768 0.344-1.768 1.474 0 0.884 0.589 1.081 0.933 1.081 0.688 0 0.982-0.442 1.032-0.442l-0.049 0.393h0.884l0.393-2.702c0-1.13-0.982-1.179-1.375-1.179l-1.277 0.982zM24.539 17.003c0 0.147-0.589 0.933-1.179 0.933-0.295 0-0.393-0.246-0.393-0.393 0-0.246 0.147-0.589 0.884-0.589 0.196 0.049 0.688 0.049 0.688 0.049z"></path>
<path fill="#dce5e5" style="fill: var(--color18, #dce5e5)" d="M24.981 18.722h1.032c0.295-1.621 0.344-2.947 1.032-2.702 0.098-0.639 0.246-0.884 0.344-1.13 0 0-0.049 0-0.196 0-0.442 0-0.786 0.589-0.786 0.589l0.098-0.54z"></path>
</symbol>
<symbol id="icon-p" viewBox="0 0 32 32">
<path fill="#03a9f4" style="fill: var(--color19, #03a9f4)" d="M26.43 7.359c-0.195-0.115-0.435-0.123-0.637-0.021s-0.339 0.299-0.363 0.524c-0.024 0.219-0.061 0.437-0.108 0.667-1.305 5.924-3.927 8.805-8.016 8.805h-6c-0.316 0.001-0.589 0.223-0.652 0.533l-2 9.375-0.357 2.387c-0.205 1.085 0.508 2.132 1.593 2.337 0.12 0.023 0.241 0.034 0.363 0.035h4.013c0.92 0.003 1.722-0.625 1.94-1.519l1.621-6.481h3.479c4.105 0 6.943-3.273 7.989-9.217 0.691-2.83-0.452-5.792-2.865-7.424z"></path>
<path fill="#283593" style="fill: var(--color20, #283593)" d="M25.171 2.376c-1.317-1.494-3.208-2.358-5.2-2.376h-11.040c-1.652-0.009-3.059 1.2-3.299 2.835l-3.428 22.868c-0.164 1.092 0.588 2.111 1.68 2.275 0.099 0.015 0.199 0.022 0.3 0.022h5.12c0.316-0.001 0.589-0.223 0.652-0.533l1.887-8.8h5.467c4.744 0 7.879-3.316 9.319-9.867 0.058-0.261 0.102-0.525 0.133-0.791 0.334-2.021-0.249-4.086-1.591-5.633z"></path>
</symbol>
<symbol id="icon-linkedin" viewBox="0 0 32 32">
<path d="M0 0h32v32h-32v-32z"></path>
</symbol>
<symbol id="icon-instagram" viewBox="0 0 32 32">
<path d="M0 0h32v32h-32v-32z"></path>
</symbol>
<symbol id="icon-twitter" viewBox="0 0 32 32">
<path d="M0 0h32v32h-32v-32z"></path>
</symbol>
<symbol id="icon-facebook" viewBox="0 0 32 32">
<path d="M0 0h32v32h-32v-32z"></path>
</symbol>
<symbol id="icon-order" viewBox="0 0 32 32">
<path fill="#f98aab" style="fill: var(--color21, #f98aab)" d="M4.313 12.104h4.843c0.345 0 0.625-0.28 0.625-0.625s-0.28-0.625-0.625-0.625h-4.843c-0.345 0-0.625 0.28-0.625 0.625s0.28 0.625 0.625 0.625z"></path>
<path fill="#f98aab" style="fill: var(--color21, #f98aab)" d="M4.313 16.434h4.843c0.345 0 0.625-0.28 0.625-0.625s-0.28-0.625-0.625-0.625h-4.843c-0.345 0-0.625 0.28-0.625 0.625s0.28 0.625 0.625 0.625z"></path>
<path fill="#f98aab" style="fill: var(--color21, #f98aab)" d="M10.318 26.91c-0.131-0.314-0.501-0.469-0.816-0.338s-0.468 0.502-0.338 0.816c0.131 0.315 0.501 0.468 0.816 0.338s0.469-0.502 0.338-0.816z"></path>
<path fill="#f98aab" style="fill: var(--color21, #f98aab)" d="M31.832 17.238l-7.434-7.98 2.276-2.271c0.395-0.391 0.613-0.913 0.613-1.469 0-0.548-0.212-1.065-0.598-1.454-0.797-0.805-2.109-0.815-2.925-0.023-0.002 0.002-0.004 0.004-0.006 0.006l-3.121 3.113h-1.166v-2.4c0-0.345-0.28-0.625-0.625-0.625h-3.31v-0.511c0-0.345-0.28-0.625-0.625-0.625s-0.625 0.28-0.625 0.625v0.511h-2.283v-0.511c0-0.345-0.28-0.625-0.625-0.625s-0.625 0.28-0.625 0.625v0.511h-2.283v-0.511c0-0.345-0.28-0.625-0.625-0.625s-0.625 0.28-0.625 0.625v0.511h-2.283v-0.511c0-0.345-0.28-0.625-0.625-0.625s-0.625 0.28-0.625 0.625v0.511h-3.063c-0.345 0-0.625 0.28-0.625 0.625v22.388c0 0.345 0.28 0.625 0.625 0.625h6.38c0.345 0 0.625-0.28 0.625-0.625s-0.28-0.625-0.625-0.625h-5.755v-21.138h2.438v0.567c0 0.345 0.28 0.625 0.625 0.625s0.625-0.28 0.625-0.625v-0.567h2.283v0.567c0 0.345 0.28 0.625 0.625 0.625s0.625-0.28 0.625-0.625v-0.567h2.283v0.567c0 0.345 0.28 0.625 0.625 0.625s0.625-0.28 0.625-0.625v-0.567h2.283v0.567c0 0.345 0.28 0.625 0.625 0.625s0.625-0.28 0.625-0.625v-0.567h2.685v1.779c-1.123 0.046-2.195 0.52-2.991 1.311l-4.599 4.599c-0.278 0.278-0.226 0.754 0.102 0.967 0.518 0.335 1.098 0.552 1.705 0.639 0.202 0.029 0.407 0.044 0.614 0.044 0.001 0 0.002-0 0.003-0l-0.717 0.716c-0.052 0.052-0.093 0.113-0.124 0.178l-2.005 3.012c-0.181 0.271-0.254 0.581-0.227 0.882h-5.67c-0.345 0-0.625 0.28-0.625 0.625s0.28 0.625 0.625 0.625h7.039c0.271 0 0.543-0.090 0.766-0.242l3.047-2.071c0.036-0.024 0.071-0.052 0.101-0.082l1.413-1.41 1.542 1.539v8.028h-5.719c-0.345 0-0.625 0.28-0.625 0.625s0.28 0.625 0.625 0.625h6.344c0.345 0 0.625-0.28 0.625-0.625v-7.433c0.79 0.656 1.775 1.014 2.816 1.014h2.493c0.519 0 1.021 0.215 1.376 0.587l4.762 5.060c0.379 0.403 1.080 0.125 1.080-0.428v-8.284c0-0.158-0.060-0.31-0.168-0.426zM16.116 9.359c0.605-0.605 1.434-0.949 2.291-0.949h0.979l-3.894 3.885c-0.36 0.346-0.701 0.685-1.163 0.899-0.681 0.316-1.472 0.366-2.188 0.14l3.975-3.975zM24.639 4.936c0.326-0.314 0.847-0.311 1.163 0.008 0.152 0.153 0.236 0.357 0.236 0.574 0 0.22-0.086 0.426-0.244 0.582l-6.532 6.517-0.315-0.315c-0.295-0.295-0.667-0.511-1.068-0.622l6.76-6.744zM11.416 19.486c-0.053 0.036-0.103 0.032-0.15-0.014-0.069-0.069-0.034-0.121-0.015-0.15l1.633-2.453 0.965 0.963-2.433 1.653zM14.826 17.041l-1.16-1.16 1.191-1.188c0.112 0.407 0.335 0.778 0.633 1.076l0.305 0.304-0.969 0.967zM30.75 24.372l-3.685-3.916c-0.593-0.621-1.425-0.977-2.284-0.977h-2.493c-0.844 0-1.638-0.328-2.236-0.924l-3.68-3.672c-0.531-0.398-0.413-1.282 0-1.701 0.464-0.451 1.237-0.45 1.691 0.003l2.99 2.99c0.241 0.24 0.643 0.241 0.884 0 0.244-0.244 0.244-0.64 0-0.884l-1.792-1.791 3.367-3.359 7.237 7.769v6.462z"></path>
</symbol>
<symbol id="icon-add" viewBox="0 0 32 32">
<path fill="#f9c2d2" style="fill: var(--color22, #f9c2d2)" d="M26.375 27.25h-17.813c-1.551 0-2.813-1.262-2.813-2.813s1.262-2.812 2.813-2.812h2.813l-1.69 1.875h-1.122c-0.517 0-0.938 0.42-0.938 0.938s0.42 0.938 0.938 0.938h17.813v1.875z"></path>
<path fill="#f98aab" style="fill: var(--color21, #f98aab)" d="M17.938 25.375h8.438v1.875h-8.438v-1.875z"></path>
<path fill="#f98aab" style="fill: var(--color21, #f98aab)" opacity="0.5" d="M6.774 10.375l-0.838-3.75h-5.936v-1.875h7.439l1.624 7.273-2.29-1.648z"></path>
<path fill="#f9c2d2" style="fill: var(--color22, #f9c2d2)" d="M21.966 10.696l-0.28-0.321h-14.908l2.91 13.125h16.478l3.304-12.786c-0.642 0.16-4.439 3.505-7.505-0.017zM26.682 14.007l-0.515 1.993h-4.396l0.238-2.86c1.375 0.838 3.065 1.171 4.673 0.867zM15.99 16l-0.313-3.75h4.526l-0.313 3.75h-3.901zM19.734 17.875l-0.313 3.75h-2.963l-0.313-3.75h3.588zM13.797 12.25l0.313 3.75h-4.164l-0.831-3.75h4.682zM10.361 17.875h3.904l0.313 3.75h-3.385l-0.831-3.75zM21.302 21.625l0.313-3.75h4.068l-0.969 3.75h-3.412z"></path>
<path fill="#f98aab" style="fill: var(--color21, #f98aab)" d="M21.963 10.696l-0.28-0.321h-3.745v1.875h2.263l-0.313 3.75h-1.95v1.875h1.794l-0.313 3.75h-1.482v1.875h8.226l3.304-12.786c-0.642 0.16-4.439 3.505-7.505-0.017zM24.712 21.625h-3.412l0.313-3.75h4.068l-0.969 3.75zM26.68 14.007l-0.515 1.993h-4.396l0.238-2.86c1.375 0.838 3.065 1.171 4.673 0.867z"></path>
<path fill="#665151" style="fill: var(--color23, #665151)" d="M12.313 31c-1.551 0-2.813-1.262-2.813-2.813s1.262-2.812 2.813-2.812c1.551 0 2.813 1.262 2.813 2.812s-1.262 2.813-2.813 2.813z"></path>
<path fill="#4d3535" style="fill: var(--color24, #4d3535)" d="M21.688 31c-1.551 0-2.813-1.262-2.813-2.813s1.262-2.812 2.813-2.812c1.551 0 2.813 1.262 2.813 2.812s-1.262 2.813-2.813 2.813z"></path>
<path fill="#f9c2d2" style="fill: var(--color22, #f9c2d2)" d="M25.438 14.125c-3.719 0-6.563-3.038-6.563-6.563 0-3.618 2.944-6.563 6.563-6.563s6.563 2.944 6.563 6.563c0 3.706-3.011 6.563-6.563 6.563z"></path>
<path fill="#fff7e6" style="fill: var(--color25, #fff7e6)" d="M12.313 29.125c0.518 0 0.938-0.42 0.938-0.938s-0.42-0.937-0.938-0.937-0.938 0.42-0.938 0.937c0 0.518 0.42 0.938 0.938 0.938z"></path>
<path fill="#ffeacc" style="fill: var(--color26, #ffeacc)" d="M21.688 29.125c0.518 0 0.938-0.42 0.938-0.938s-0.42-0.937-0.938-0.937-0.938 0.42-0.938 0.937c0 0.518 0.42 0.938 0.938 0.938z"></path>
<path fill="#f98aab" style="fill: var(--color21, #f98aab)" d="M32 7.563c0-3.618-2.944-6.563-6.563-6.563v13.125c3.552 0 6.563-2.856 6.563-6.563z"></path>
<path fill="#fff" style="fill: var(--color17, #fff)" d="M28.25 6.625h-1.875v-1.875h-1.875v1.875h-1.875v1.875h1.875v1.875h1.875v-1.875h1.875v-1.875z"></path>
<path fill="#fff" style="fill: var(--color17, #fff)" d="M25.438 4.75v5.625h0.938v-1.875h1.875v-1.875h-1.875v-1.875h-0.938z"></path>
</symbol>
<symbol id="icon-select" viewBox="0 0 32 32">
<path fill="#f98aab" style="fill: var(--color21, #f98aab)" d="M17.664 7.765c1.64-0.681 2.522-2.267 2.123-3.818s-1.972-2.653-3.787-2.653c-1.815 0-3.388 1.102-3.787 2.653s0.483 3.137 2.124 3.818h3.327z"></path>
<path fill="#f98aab" style="fill: var(--color21, #f98aab)" d="M11.6 9.059c-0.143 0-0.28-0.062-0.377-0.172-2.15-2.406-2.266-6.128-0.27-8.678 0.116-0.156 0.303-0.233 0.489-0.202s0.34 0.167 0.404 0.353c0.064 0.187 0.028 0.395-0.096 0.545-1.664 2.125-1.566 5.228 0.227 7.231 0.141 0.159 0.18 0.392 0.098 0.592s-0.269 0.33-0.475 0.33z"></path>
<path fill="#f98aab" style="fill: var(--color21, #f98aab)" d="M21.208 6.471c-0.199 0-0.383-0.084-0.486-0.221s-0.111-0.308-0.021-0.451c1.040-1.637 0.773-3.618-0.679-5.035-0.136-0.127-0.176-0.303-0.105-0.46s0.241-0.272 0.446-0.298 0.411 0.039 0.539 0.17c1.742 1.701 2.063 4.078 0.815 6.044-0.098 0.154-0.294 0.251-0.508 0.251z"></path>
<path fill="#f98aab" style="fill: var(--color21, #f98aab)" d="M26.353 14.804v8.346c0 0 0 2.842-1.729 4.487-0.196 0.195-0.305 0.467-0.299 0.749v1.618c-0.002 0.582-0.455 1.053-1.014 1.055h-8.114c-0.56-0.002-1.013-0.473-1.014-1.055v-0.195c0.001-0.845-0.326-1.655-0.908-2.246-0.979-0.991-2.49-2.705-3.149-4.413-1.014-2.636-3.043-6.327-4.057-7.381s0-2.109 1.014-2.109c1.014 0 3.043 2.109 4.057 3.691 0.323 0.509 0.701 0.978 1.126 1.397 0.252 0.244 0.607 0.337 0.941 0.248s0.6-0.35 0.707-0.691c0.193-0.65 0.284-1.329 0.269-2.009v-12.126c-0.003-0.67 0.405-1.268 1.014-1.487 0.162-0.064 0.334-0.096 0.507-0.095 0.84 0 1.522 0.708 1.522 1.582v6.327c-0.003-0.67 0.405-1.268 1.014-1.487 0.162-0.064 0.334-0.096 0.507-0.095 0.84 0 1.521 0.708 1.521 1.582v1.582c0-0.419 0.161-0.822 0.446-1.118 0.159-0.168 0.353-0.294 0.568-0.369 0.162-0.064 0.334-0.096 0.507-0.095 0.84 0 1.521 0.708 1.521 1.582v2.636c0-0.419 0.16-0.822 0.446-1.118 0.159-0.168 0.353-0.294 0.568-0.369 0.198-0.075 0.409-0.106 0.619-0.089 0.815 0.090 1.427 0.814 1.41 1.666z"></path>
<path fill="#f8edf0" style="fill: var(--color27, #f8edf0)" d="M16.028 2.621c-0.178-0.001-0.356 0.031-0.522 0.094-0.628 0.217-1.048 0.809-1.045 1.473v12.015c0.016 0.674-0.078 1.346-0.277 1.99-0.082 0.242-0.249 0.446-0.47 0.575 0.272 0.16 0.601 0.187 0.895 0.076s0.523-0.351 0.62-0.65c0.199-0.644 0.293-1.316 0.277-1.99v-12.015c-0.003-0.664 0.417-1.257 1.045-1.473-0.167-0.063-0.344-0.095-0.523-0.094z"></path>
<path fill="#f8edf0" style="fill: var(--color27, #f8edf0)" d="M18.641 8.984c-0.628 0.217-1.048 0.809-1.045 1.473v4.702c0 0.289 0.234 0.522 0.523 0.522s0.522-0.234 0.522-0.522v-4.702c-0.003-0.664 0.417-1.257 1.045-1.473-0.337-0.125-0.708-0.125-1.045 0z"></path>
<path fill="#f8edf0" style="fill: var(--color27, #f8edf0)" d="M21.781 10.552c-0.221 0.074-0.421 0.199-0.585 0.366-0.294 0.293-0.46 0.692-0.46 1.107v3.135c0 0.289 0.234 0.522 0.523 0.522s0.522-0.234 0.522-0.522v-3.135c-0.003-0.664 0.417-1.256 1.045-1.473-0.337-0.125-0.708-0.125-1.045 0z"></path>
<path fill="#f8edf0" style="fill: var(--color27, #f8edf0)" d="M25.436 13.069c-0.178-0.001-0.356 0.031-0.522 0.094-0.221 0.074-0.422 0.2-0.585 0.366-0.294 0.293-0.46 0.692-0.46 1.107v1.045c0 0.289 0.234 0.523 0.522 0.523s0.523-0.234 0.523-0.523v-1.045c-0.003-0.664 0.417-1.256 1.045-1.473-0.167-0.063-0.344-0.095-0.522-0.094z"></path>
<path fill="#f8edf0" style="fill: var(--color27, #f8edf0)" d="M24.412 18.118c-0.357 0-0.647 0.217-0.647 0.485v2.912c0 0.268 0.29 0.485 0.647 0.485s0.647-0.217 0.647-0.485v-2.912c0-0.268-0.29-0.485-0.647-0.485z"></path>
<path fill="#f8edf0" style="fill: var(--color27, #f8edf0)" d="M24.64 23.294c-0.232 0.005-0.422 0.276-0.44 0.623-0.032 0.329-0.14 0.63-0.304 0.852-0.112 0.162-0.156 0.403-0.117 0.629s0.157 0.403 0.307 0.462c0.15 0.059 0.31-0.008 0.418-0.177 0.327-0.456 0.526-1.083 0.555-1.752-0-0.349-0.187-0.633-0.419-0.638z"></path>
<path fill="#f8edf0" style="fill: var(--color27, #f8edf0)" d="M16.863 28.471h-0.431c-0.238 0-0.431 0.29-0.431 0.647s0.193 0.647 0.431 0.647h0.431c0.238 0 0.431-0.29 0.431-0.647s-0.193-0.647-0.431-0.647z"></path>
<path fill="#f8edf0" style="fill: var(--color27, #f8edf0)" d="M22.039 28.471h-3.020c-0.238 0-0.431 0.29-0.431 0.647s0.193 0.647 0.431 0.647h3.020c0.238 0 0.431-0.29 0.431-0.647s-0.193-0.647-0.431-0.647z"></path>
</symbol>
<symbol id="icon-fast-delivery" viewBox="0 0 32 32">
<path fill="#e0e2e5" style="fill: var(--color28, #e0e2e5)" d="M25.889 18h-4.889c-0.133 0-0.26-0.053-0.354-0.146s-0.146-0.221-0.146-0.354c0-0.133 0.053-0.26 0.146-0.354s0.221-0.146 0.354-0.146h4.889c0.133 0 0.26 0.053 0.354 0.146s0.146 0.221 0.146 0.354c0 0.133-0.053 0.26-0.146 0.354s-0.221 0.146-0.354 0.146z"></path>
<path fill="#93573d" style="fill: var(--color29, #93573d)" d="M15 11.5l1 12v1h6v-1l1-12h-8z"></path>
<path fill="#fdd14b" style="fill: var(--color30, #fdd14b)" d="M10 11.5v-0.5h-2v1.5h-2v5h4v-0.5h2v-5.5h-2z"></path>
<path fill="#e4bc43" style="fill: var(--color31, #e4bc43)" d="M8 19c-0.133 0-0.26-0.053-0.354-0.146s-0.146-0.221-0.146-0.354v-5.5c0-0.133 0.053-0.26 0.146-0.354s0.221-0.146 0.354-0.146 0.26 0.053 0.354 0.146c0.094 0.094 0.146 0.221 0.146 0.354v5.5c0 0.133-0.053 0.26-0.146 0.354s-0.221 0.146-0.354 0.146z"></path>
<path fill="#e4bc43" style="fill: var(--color31, #e4bc43)" d="M10.072 20c-0.132 0-0.258-0.052-0.352-0.145s-0.147-0.219-0.148-0.351l-0.071-7.5c-0.001-0.133 0.050-0.26 0.143-0.355s0.22-0.149 0.352-0.15c0.133-0.001 0.26 0.050 0.355 0.143s0.149 0.22 0.15 0.352l0.071 7.5c0.001 0.133-0.050 0.26-0.143 0.355s-0.22 0.149-0.352 0.15h-0.005z"></path>
<path fill="#e74444" style="fill: var(--color32, #e74444)" d="M5.5 16.5l1 7v1h6v-8h-7z"></path>
<path fill="#e0e2e5" style="fill: var(--color28, #e0e2e5)" d="M29 18h-1c-0.133 0-0.26-0.053-0.354-0.146s-0.146-0.221-0.146-0.354c0-0.133 0.053-0.26 0.146-0.354s0.221-0.146 0.354-0.146h1c0.133 0 0.26 0.053 0.354 0.146s0.146 0.221 0.146 0.354c0 0.133-0.053 0.26-0.146 0.354s-0.221 0.146-0.354 0.146z"></path>
<path fill="#a4d4f4" style="fill: var(--color33, #a4d4f4)" d="M23 11.5l-0.167 2h-7.666l-0.167-2h8z"></path>
<path fill="#e0e2e5" style="fill: var(--color28, #e0e2e5)" d="M14.029 8.5c-0.091-0-0.179-0.025-0.257-0.071s-0.141-0.113-0.184-0.193c-0.043-0.080-0.063-0.17-0.058-0.26s0.033-0.178 0.083-0.253l0.475-0.713c0.071-0.106 0.098-0.236 0.077-0.362s-0.091-0.239-0.193-0.316l-0.486-0.365c-0.307-0.23-0.513-0.569-0.578-0.947s0.018-0.766 0.23-1.085l0.475-0.713c0.036-0.055 0.083-0.102 0.138-0.138s0.116-0.062 0.18-0.075 0.131-0.013 0.195-0c0.064 0.013 0.126 0.038 0.18 0.074s0.102 0.083 0.138 0.138c0.037 0.055 0.062 0.116 0.075 0.18s0.013 0.131 0 0.195-0.038 0.126-0.075 0.18l-0.475 0.713c-0.071 0.106-0.098 0.236-0.077 0.362s0.091 0.239 0.193 0.316l0.486 0.365c0.307 0.23 0.514 0.569 0.578 0.947s-0.018 0.766-0.23 1.085l-0.475 0.713c-0.046 0.069-0.108 0.125-0.18 0.164s-0.154 0.059-0.236 0.059z"></path>
<path fill="#e0e2e5" style="fill: var(--color28, #e0e2e5)" d="M10.029 8.5c-0.091-0-0.179-0.025-0.257-0.071s-0.141-0.113-0.184-0.193c-0.043-0.080-0.063-0.17-0.058-0.26s0.033-0.178 0.083-0.253l0.475-0.713c0.071-0.106 0.098-0.236 0.077-0.362s-0.091-0.239-0.193-0.316l-0.486-0.365c-0.307-0.23-0.513-0.569-0.578-0.947s0.018-0.766 0.23-1.085l0.475-0.713c0.074-0.11 0.188-0.187 0.318-0.213s0.265 0.001 0.375 0.074c0.11 0.074 0.187 0.188 0.213 0.318s-0.001 0.265-0.074 0.375l-0.475 0.713c-0.071 0.106-0.098 0.236-0.077 0.362s0.091 0.239 0.193 0.316l0.486 0.365c0.307 0.23 0.514 0.569 0.578 0.947s-0.018 0.766-0.23 1.085l-0.475 0.713c-0.046 0.069-0.108 0.125-0.18 0.164s-0.154 0.059-0.236 0.059z"></path>
<path fill="#e0e2e5" style="fill: var(--color28, #e0e2e5)" d="M17.973 8.5c-0.090-0-0.179-0.025-0.257-0.071s-0.141-0.113-0.184-0.193c-0.043-0.080-0.063-0.17-0.058-0.26s0.033-0.178 0.083-0.253l0.475-0.713c0.071-0.106 0.098-0.236 0.077-0.362s-0.091-0.239-0.193-0.316l-0.486-0.365c-0.307-0.23-0.514-0.569-0.578-0.947s0.018-0.766 0.23-1.085l0.475-0.713c0.074-0.11 0.188-0.187 0.318-0.213 0.064-0.013 0.131-0.013 0.195-0s0.126 0.038 0.18 0.074c0.055 0.036 0.102 0.083 0.138 0.138s0.062 0.116 0.075 0.18c0.013 0.064 0.013 0.131 0 0.195s-0.038 0.126-0.075 0.18l-0.475 0.713c-0.071 0.106-0.098 0.236-0.077 0.362s0.091 0.239 0.193 0.316l0.486 0.365c0.307 0.23 0.514 0.569 0.578 0.947s-0.018 0.766-0.23 1.085l-0.475 0.713c-0.046 0.069-0.108 0.125-0.181 0.164s-0.154 0.059-0.237 0.059z"></path>
<path fill="#e0e2e5" style="fill: var(--color28, #e0e2e5)" d="M30.5 15h-5.5c-0.133 0-0.26-0.053-0.354-0.146s-0.146-0.221-0.146-0.354c0-0.133 0.053-0.26 0.146-0.354s0.221-0.146 0.354-0.146h5.5c0.133 0 0.26 0.053 0.354 0.146s0.146 0.221 0.146 0.354c0 0.133-0.053 0.26-0.146 0.354s-0.221 0.146-0.354 0.146z"></path>
<path fill="#e0e2e5" style="fill: var(--color28, #e0e2e5)" d="M27 21h-3c-0.133 0-0.26-0.053-0.354-0.146s-0.146-0.221-0.146-0.354c0-0.133 0.053-0.26 0.146-0.354s0.221-0.146 0.354-0.146h3c0.133 0 0.26 0.053 0.354 0.146s0.146 0.221 0.146 0.354c0 0.133-0.053 0.26-0.146 0.354s-0.221 0.146-0.354 0.146z"></path>
<path fill="#c2c5c6" style="fill: var(--color34, #c2c5c6)" d="M30.5 29h-29c-0.133 0-0.26-0.053-0.354-0.146s-0.146-0.221-0.146-0.354c0-0.133 0.053-0.26 0.146-0.354s0.221-0.146 0.354-0.146h29c0.133 0 0.26 0.053 0.354 0.146s0.146 0.221 0.146 0.354c0 0.133-0.053 0.26-0.146 0.354s-0.221 0.146-0.354 0.146z"></path>
<path fill="#fdd14b" style="fill: var(--color30, #fdd14b)" d="M1.5 23.5h25v1c0 0.265-0.105 0.52-0.293 0.707s-0.442 0.293-0.707 0.293h-23c-0.265 0-0.52-0.105-0.707-0.293s-0.293-0.442-0.293-0.707v-1z"></path>
<path fill="#6a7073" style="fill: var(--color35, #6a7073)" d="M21.5 28.5c1.657 0 3-1.343 3-3s-1.343-3-3-3c-1.657 0-3 1.343-3 3s1.343 3 3 3z"></path>
<path fill="#99a2a7" style="fill: var(--color36, #99a2a7)" d="M21.5 26.5c0.552 0 1-0.448 1-1s-0.448-1-1-1c-0.552 0-1 0.448-1 1s0.448 1 1 1z"></path>
<path fill="#6a7073" style="fill: var(--color35, #6a7073)" d="M6.5 28.5c1.657 0 3-1.343 3-3s-1.343-3-3-3c-1.657 0-3 1.343-3 3s1.343 3 3 3z"></path>
<path fill="#99a2a7" style="fill: var(--color36, #99a2a7)" d="M6.5 26.5c0.552 0 1-0.448 1-1s-0.448-1-1-1c-0.552 0-1 0.448-1 1s0.448 1 1 1z"></path>
<path fill="#ea8333" style="fill: var(--color37, #ea8333)" d="M9.5 21.5h9v1c0 0.265-0.105 0.52-0.293 0.707s-0.442 0.293-0.707 0.293h-7c-0.265 0-0.52-0.105-0.707-0.293s-0.293-0.442-0.293-0.707v-1z"></path>
<path fill="#794832" style="fill: var(--color38, #794832)" d="M18.091 19.5c0.502 0 0.909 0.448 0.909 1s-0.407 1-0.909 1h-8.182c-0.502 0-0.909-0.448-0.909-1s0.407-1 0.909-1h8.182z"></path>
<path fill="#fdd14b" style="fill: var(--color30, #fdd14b)" d="M10 17.5h8v2h-8v-2z"></path>
<path fill="#3ba673" style="fill: var(--color39, #3ba673)" d="M19.5 18c0 0.828-0.704 1.5-1.571 1.5-0.256 0.002-0.509-0.058-0.737-0.175s-0.424-0.287-0.573-0.496c-0.149 0.208-0.346 0.377-0.574 0.493s-0.48 0.177-0.736 0.177c-0.256 0-0.508-0.061-0.736-0.177s-0.424-0.286-0.574-0.493c-0.149 0.208-0.346 0.377-0.574 0.493s-0.48 0.177-0.736 0.177c-0.256 0-0.508-0.061-0.736-0.177s-0.424-0.286-0.574-0.493c-0.148 0.209-0.345 0.379-0.573 0.496s-0.481 0.177-0.737 0.175c-0.868 0-1.571-0.672-1.571-1.5 0-0.133 0.053-0.26 0.146-0.354s0.221-0.146 0.354-0.146h10c0.133 0 0.26 0.053 0.354 0.146s0.146 0.221 0.146 0.354z"></path>
<path fill="#e74444" style="fill: var(--color32, #e74444)" d="M18.5 13.5v-4c-0-0.1 0.030-0.198 0.086-0.28s0.136-0.147 0.228-0.184l2.5-1c0.061-0.024 0.126-0.037 0.192-0.036s0.131 0.015 0.191 0.040c0.060 0.026 0.115 0.063 0.161 0.11s0.082 0.103 0.106 0.164c0.024 0.061 0.037 0.126 0.036 0.192s-0.015 0.13-0.040 0.191c-0.026 0.060-0.063 0.115-0.11 0.161s-0.103 0.082-0.164 0.106l-2.186 0.874v3.662h-1z"></path>
<path fill="#ce3536" style="fill: var(--color40, #ce3536)" d="M18.5 11.5h1v2h-1v-2z"></path>
</symbol>
<symbol id="icon-cash-back" viewBox="0 0 32 32">
<path d="M25.872 22.088h-16.75c-0.375 0-0.679-0.304-0.679-0.679v-7.824c0-0.375 0.304-0.679 0.679-0.679h16.75c0.375 0 0.679 0.304 0.679 0.679v7.824c0 0.375-0.304 0.679-0.679 0.679z"></path>
<path d="M8.462 21.127l0.961 0.961h16.449c0.375 0 0.679-0.304 0.679-0.679v-7.824c0-0.375-0.304-0.679-0.679-0.679h-16.75c-0.375 0-0.679 0.304-0.679 0.679v7.502l0.018 0.040z"></path>
<path d="M24.852 21.070h-16.75c-0.375 0-0.679-0.304-0.679-0.679v-7.824c0-0.375 0.304-0.679 0.679-0.679h16.75c0.375 0 0.679 0.304 0.679 0.679v7.824c0 0.375-0.304 0.679-0.679 0.679z"></path>
<path d="M7.442 20.109l0.961 0.961h16.449c0.375 0 0.679-0.304 0.679-0.679v-7.824c0-0.375-0.304-0.679-0.679-0.679h-16.75c-0.375 0-0.679 0.304-0.679 0.679v7.502l0.018 0.040z"></path>
<path d="M23.835 20.052h-16.75c-0.375 0-0.679-0.304-0.679-0.679v-7.824c0-0.375 0.304-0.679 0.679-0.679h16.75c0.375 0 0.679 0.304 0.679 0.679v7.824c0 0.375-0.304 0.679-0.679 0.679z"></path>
<path d="M6.425 19.090l0.961 0.961h16.449c0.375 0 0.679-0.304 0.679-0.679v-7.824c0-0.375-0.304-0.679-0.679-0.679h-16.75c-0.375 0-0.679 0.304-0.679 0.679v7.502l0.018 0.040z"></path>
<path d="M22.878 19.093h-16.75c-0.375 0-0.679-0.304-0.679-0.679v-7.824c0-0.375 0.304-0.679 0.679-0.679h16.75c0.375 0 0.679 0.304 0.679 0.679v7.824c0 0.375-0.304 0.679-0.679 0.679z"></path>
<path d="M22.533 11.853c-0.491-0.026-0.893-0.428-0.918-0.919-0.006-0.109 0.007-0.213 0.035-0.312h-14.295c0.028 0.099 0.040 0.204 0.035 0.312-0.026 0.491-0.427 0.894-0.918 0.919-0.168 0.009-0.327-0.025-0.468-0.092v5.484c0.141-0.067 0.3-0.101 0.468-0.092 0.491 0.026 0.893 0.428 0.918 0.92 0.006 0.109-0.007 0.213-0.035 0.312h14.295c-0.028-0.099-0.040-0.203-0.035-0.312 0.025-0.491 0.427-0.894 0.918-0.92 0.168-0.009 0.328 0.025 0.468 0.092v-5.484c-0.141 0.067-0.3 0.101-0.468 0.092z"></path>
<path d="M14.502 16.853c1.299 0 2.351-1.053 2.351-2.351s-1.053-2.351-2.351-2.351c-1.299 0-2.351 1.053-2.351 2.351s1.053 2.351 2.351 2.351z"></path>
<path d="M11.27 11.485h-3.611v1.039h3.611v-1.039z"></path>
<path d="M21.344 16.481h-3.611v1.039h3.611v-1.039z"></path>
<path d="M31.078 7.253c-0.647-0.237-1.356 0.034-1.692 0.608-1.062-1.752-2.463-3.286-4.151-4.524-2.705-1.985-5.913-3.034-9.278-3.034s-6.572 1.049-9.278 3.034c-2.649 1.944-4.594 4.612-5.624 7.717-0.244 0.736 0.155 1.531 0.891 1.775s1.531-0.155 1.775-0.891c0.845-2.548 2.443-4.739 4.62-6.337 2.22-1.629 4.854-2.49 7.616-2.49s5.396 0.861 7.616 2.49c1.296 0.951 2.387 2.113 3.236 3.436-0.646-0.097-1.293 0.269-1.526 0.907-0.267 0.728 0.108 1.535 0.836 1.801l2.924 1.070c0.007 0.003 0.014 0.004 0.021 0.007 0.025 0.009 0.049 0.016 0.074 0.024 0.013 0.004 0.027 0.008 0.040 0.011 0.025 0.006 0.051 0.012 0.076 0.017 0.013 0.003 0.026 0.006 0.039 0.008 0.027 0.005 0.055 0.008 0.082 0.011 0.011 0.001 0.022 0.003 0.034 0.004 0.038 0.003 0.077 0.005 0.116 0.005 0 0 0 0 0 0h0c0.036 0 0.073-0.002 0.109-0.004 0.009-0.001 0.017-0.002 0.026-0.003 0.028-0.003 0.055-0.006 0.083-0.010 0.011-0.002 0.021-0.004 0.032-0.006 0.026-0.005 0.051-0.009 0.076-0.015 0.012-0.003 0.023-0.006 0.035-0.010 0.024-0.006 0.048-0.013 0.071-0.020 0.003-0.001 0.007-0.002 0.011-0.003 0.007-0.002 0.013-0.005 0.020-0.008 0.031-0.011 0.062-0.023 0.092-0.036 0.013-0.005 0.026-0.011 0.038-0.017 0.029-0.014 0.058-0.028 0.087-0.044 0.009-0.005 0.018-0.009 0.027-0.015 0.034-0.020 0.067-0.041 0.1-0.064 0.013-0.009 0.025-0.018 0.037-0.028 0.022-0.016 0.043-0.033 0.064-0.051 0.011-0.010 0.023-0.019 0.034-0.029 0.024-0.021 0.046-0.044 0.069-0.066 0.006-0.006 0.013-0.012 0.019-0.019 0.029-0.031 0.057-0.063 0.083-0.097 0.002-0.002 0.003-0.005 0.005-0.007 0.023-0.031 0.045-0.062 0.066-0.095 0.006-0.009 0.011-0.018 0.016-0.027 0.016-0.027 0.032-0.054 0.046-0.082 0.006-0.012 0.012-0.023 0.018-0.035 0.013-0.026 0.024-0.053 0.036-0.080 0.005-0.013 0.011-0.025 0.016-0.038 0.002-0.004 0.004-0.009 0.005-0.013l1.070-2.924c0.267-0.728-0.108-1.535-0.836-1.801z"></path>
<path d="M0.922 24.747c0.647 0.237 1.356-0.033 1.692-0.608 1.062 1.752 2.463 3.286 4.151 4.524 2.705 1.985 5.913 3.034 9.278 3.034s6.572-1.049 9.278-3.034c2.649-1.944 4.594-4.612 5.624-7.717 0.244-0.736-0.155-1.531-0.891-1.775s-1.531 0.155-1.775 0.891c-0.845 2.548-2.443 4.739-4.62 6.337-2.22 1.629-4.854 2.49-7.616 2.49s-5.396-0.861-7.616-2.49c-1.296-0.951-2.387-2.113-3.236-3.436 0.646 0.097 1.293-0.269 1.526-0.907 0.267-0.728-0.108-1.535-0.836-1.801l-2.924-1.070c-0.007-0.003-0.014-0.004-0.021-0.007-0.025-0.009-0.049-0.016-0.074-0.023-0.013-0.004-0.027-0.008-0.040-0.011-0.025-0.006-0.051-0.012-0.076-0.017-0.013-0.003-0.026-0.006-0.039-0.008-0.027-0.005-0.055-0.008-0.082-0.011-0.011-0.001-0.022-0.003-0.034-0.004-0.038-0.003-0.077-0.005-0.116-0.005 0 0 0 0-0 0h-0c-0.036 0-0.073 0.002-0.109 0.004-0.009 0.001-0.017 0.002-0.026 0.003-0.028 0.003-0.055 0.006-0.083 0.010-0.011 0.002-0.021 0.004-0.032 0.006-0.026 0.005-0.051 0.009-0.076 0.015-0.012 0.003-0.023 0.006-0.035 0.010-0.024 0.006-0.048 0.013-0.071 0.020-0.003 0.001-0.007 0.002-0.011 0.003-0.007 0.002-0.013 0.005-0.020 0.008-0.031 0.011-0.062 0.023-0.092 0.036-0.013 0.006-0.026 0.011-0.038 0.017-0.029 0.014-0.058 0.029-0.087 0.044-0.009 0.005-0.018 0.009-0.027 0.015-0.034 0.020-0.067 0.041-0.1 0.064-0.013 0.009-0.025 0.018-0.037 0.028-0.022 0.016-0.043 0.033-0.064 0.051-0.011 0.010-0.023 0.019-0.034 0.029-0.024 0.021-0.046 0.044-0.069 0.066-0.006 0.006-0.013 0.012-0.019 0.019-0.029 0.031-0.057 0.064-0.083 0.097-0.002 0.002-0.003 0.005-0.005 0.007-0.023 0.031-0.045 0.063-0.066 0.095-0.006 0.009-0.011 0.018-0.016 0.027-0.016 0.027-0.032 0.054-0.046 0.082-0.006 0.012-0.012 0.023-0.018 0.035-0.013 0.026-0.024 0.053-0.036 0.080-0.005 0.013-0.011 0.025-0.016 0.038-0.002 0.004-0.004 0.009-0.005 0.013l-1.070 2.924c-0.267 0.728 0.108 1.535 0.836 1.801z"></path>
</symbol>
<symbol id="icon-packing" viewBox="0 0 32 32">
<path d="M15.916 13.86l-10.102 1.832 3.792 14.873c0.11 0.403 0.476 0.696 0.898 0.696h10.99c0.421 0 0.788-0.293 0.898-0.696l3.792-14.873-10.266-1.832zM14.166 11.112c0.506 0 0.916-0.41 0.916-0.916v-9.28c0-0.506-0.41-0.916-0.916-0.916s-0.916 0.41-0.916 0.916v9.28c0 0.506 0.41 0.916 0.916 0.916zM17.83 11.112c0.506 0 0.916-0.41 0.916-0.916v-9.28c0-0.506-0.41-0.916-0.916-0.916s-0.916 0.41-0.916 0.916v9.28c0 0.506 0.41 0.916 0.916 0.916z"></path>
<path d="M27.393 11.204c-0.44-0.22-0.989-0.037-1.227 0.421l-1.117 2.235-2.784-4.176c-0.183-0.256-0.458-0.403-0.769-0.403h-10.99c-0.311 0-0.586 0.147-0.769 0.403l-2.784 4.176-1.117-2.235c-0.238-0.458-0.788-0.641-1.227-0.421-0.458 0.238-0.641 0.788-0.421 1.227l1.63 3.26h20.368l1.63-3.26c0.22-0.44 0.037-0.989-0.421-1.227zM16 20.27c-1.515 0-2.748 1.232-2.748 2.747s1.233 2.748 2.748 2.748 2.747-1.232 2.747-2.748c0-1.515-1.232-2.747-2.747-2.747z"></path>
</symbol>
<symbol id="icon-mob-menu" viewBox="0 0 32 32">
<path d="M6.4 11.733v-2.133h19.2v2.133h-19.2zM6.4 17.067h19.2v-2.133h-19.2v2.133zM6.4 22.4h19.2v-2.133h-19.2v2.133z"></path>
</symbol>
<symbol id="icon-search" viewBox="0 0 32 32">
<path d="M31.008 27.231l-7.58-6.447c-0.784-0.705-1.622-1.029-2.299-0.998 1.789-2.096 2.87-4.815 2.87-7.787 0-6.627-5.373-12-12-12s-12 5.373-12 12 5.373 12 12 12c2.972 0 5.691-1.081 7.787-2.87-0.031 0.677 0.293 1.515 0.998 2.299l6.447 7.58c1.104 1.226 2.907 1.33 4.007 0.23s0.997-2.903-0.23-4.007zM12 20c-4.418 0-8-3.582-8-8s3.582-8 8-8 8 3.582 8 8-3.582 8-8 8z"></path>
</symbol>
</defs>
</svg>
